#!OML:ASF E:/inclinewalkrobotboard/Project1/Captureday1/Session1/subject1.ASF
:FULLY-SPECIFIED
:DEGREES
38
root 0 0 0 -1.355497061713295 -1.4718376160898934 -3.9910997908936428
lowerback 20.390928380752797 2.7420511070580234 -0.39740041947410476
upperback 2.238938229406547 3.692092448068113 -0.1820962046152863
thorax -8.989346050929253 1.787018037767857 -0.6012285282385915
lowerneck -7.5558950985843945 -5.824013181978914 -0.8577150030115854
upperneck 0.08135784460963791 -8.329900764723101 5.055115270937398
head 1.6621160952381562 -3.838384418018218 1.2049266696824303
rclavicle -1.9373973056377664E-15 1.0807753899917225E-15
rhumerus 34.5977572326766 -6.834321273784955 -29.641864394636393
rradius 146.57938753525605
rwrist -24.280612982099484
rhand -19.047835085642514 -31.78007687036213
rfingers 7.125019999999959
rthumb 7.275033834567464 -61.55097025286979
lclavicle -2.752784855350715E-15 1.4876324555713008E-15
lhumerus -46.57609000848623 -6.810226182274915 80.82253697787196
lradius 62.16744929447853
lwrist 10.702592694817424
lhand -14.298537510081873 -20.627075615914414
lfingers 7.125019999999879
lthumb 11.772550010723236 9.038040036584983
rfemur -11.830567421067103 7.725458357186415 34.18919952019266
rtibia 34.17884214882131
rfoot -17.501072152189415 -7.83116607753922
rtoes 9.309550782398365
lfemur -22.085547189456832 3.4326022538428975 -14.06102212347036
ltibia 63.58217797529626
lfoot -1.6910056837200074 -7.603245251095756
ltoes -5.0362558808148705
39
root 0 0 0 -1.4489182562907819 -1.5313999226794506 -3.9920263101421782
lowerback 20.11910109686069 2.8961077948333576 -0.11510485425195405
upperback 2.1746579769365657 3.9085044536481446 -0.3620932412551625
thorax -8.916007361884622 1.8854588619959358 -0.972856476830876
lowerneck -8.205595406827905 -5.891874698006591 -1.16845802614519
upperneck -0.5952219215293226 -8.46567126749048 5.414027872735016
head 1.4980675140041475 -3.8891825781336298 1.359922464810022
rclavicle 1.5255423634595385E-16 1.6310820016602042E-15
rhumerus 34.85019398668237 -6.612491340149605 -30.19529578264187
rradius 146.34836564552103
rwrist -22.8455105638227
rhand -19.229267706514495 -31.103317488366763
rfingers 7.125019999999959
rthumb 7.107609361919265 -60.878885362034154
lclavicle -1.2193254809507183E-15 1.9693462233006747E-15
lhumerus -46.79983774339382 -6.614792980745771 80.53467769984292
lradius 62.07736528909946
lwrist 10.6927132172175
lhand -14.354653632523927 -20.401049505505483
lfingers 7.125019999999876
lthumb 11.719004901962707 9.246820626834529
rfemur -5.842504358158175 8.85292924698035 35.36181187918147
rtibia 28.229721828916425
rfoot -19.89298638787768 -8.006964170400032
rtoes 7.80188263512959
lfemur -23.018952872721776 3.3526243381817378 -14.056535385287283
ltibia 62.20008587427557
lfoot -2.148430173969942 -7.002442308257025
ltoes -3.9978168534599803
40
root 0 0 0 -1.4201680249243607 -1.4312212886429696 -4.004481405142497
lowerback 19.936093691635037 2.989310111699104 0.03975221393481254
upperback 2.1614315418073606 4.036646579962226 -0.4828414688653089
thorax -8.829502128551557 1.9448829550794131 -1.2015087796858195
lowerneck -8.492088768516176 -5.958961242685378 -1.3708143650271019
upperneck -0.9904123291603604 -8.59582551521774 5.707452178121774
head 1.3789723578733684 -3.9399696033098843 1.479003299710671
rclavicle -6.785406310923081E-16 9.814945254765446E-16
rhumerus 36.18840115607534 -5.310446398151265 -29.0004635423359
rradius 149.3422575222893
rwrist -24.61252706777083
rhand -19.275946991014628 -31.448015297587354
rfingers 7.1250199999999575
rthumb 7.060985756138713 -61.25006266863066
lclavicle -1.8655833225605258E-15 1.2507172128468772E-15
lhumerus -47.18635385457739 -6.408282341972974 80.11258029924245
lradius 62.0866720270675
lwrist 10.81349798017865
lhand -14.461731023902384 -20.034615605202916
lfingers 7.1250199999998705
lthumb 11.617226398211814 9.64946027891532
rfemur -2.8842320900125706 8.945085301602962 35.59103780110545
rtibia 27.186897371682598
rfoot -20.932182986774844 -8.000811714674875
rtoes 6.82008630611351
lfemur -24.26131169416974 3.0494200008849073 -14.472995228265095
ltibia 59.03973887757881
lfoot -2.6732512014063765 -6.160606761774285
ltoes -1.4867986233671573
41
root 0 0 0 -1.4479328987351114 -1.4685115575898964 -4.000689591183168
lowerback 19.83882912886577 3.0182495829051046 0.11019643463653772
upperback 2.2117916985847264 4.076753600671153 -0.5151837218301425
thorax -8.723129534297755 1.9634908109100007 -1.2772550182679658
lowerneck -8.575370054360578 -5.961235515055806 -1.4456885101893018
upperneck -1.0724271588635705 -8.604216122486537 5.7949829316935535
head 1.3455804166582244 -3.9422724785591727 1.518425347175898
rclavicle -7.805709870439353E-16 8.806117456541367E-16
rhumerus 36.436488553657924 -4.601940352740373 -29.003401621602862
rradius 150.1154460928179
rwrist -24.694142118776597
rhand -19.33668649448262 -31.28489677102572
rfingers 7.125019999999956
rthumb 7.001954697479439 -61.09516480851302
lclavicle -1.7655425245757652E-15 1.0901123558729977E-15
lhumerus -47.319165901521664 -6.279970834472522 79.92795894821454
lradius 62.04720150416174
lwrist 10.819583063670565
lhand -14.509147719703549 -19.944936949460498
lfingers 7.125019999999869
lthumb 11.573347000351225 9.759834556124597
rfemur -1.0806990270918866 8.966217874347864 35.70186848619933
rtibia 26.71912534837427
rfoot -21.460162034519726 -7.950449723206683
rtoes 6.150358837892497
lfemur -25.354162627513297 2.633213793447989 -15.010908193221374
ltibia 55.313517679731405
lfoot -2.9783001227357477 -5.425327791594358
ltoes 1.3843280976705046
42
root 0 0 0 -1.4673502005773829 -1.512786631380656 -3.9937870442385828
lowerback 19.847313076200663 3.024354918390163 0.1332295847997158
upperback 2.2457315297544933 4.085205492231391 -0.52438628749779
thorax -8.69338656837009 1.9669738965687555 -1.3003934975484719
lowerneck -8.598591377795 -5.953100137607125 -1.4587797338618533
upperneck -1.1558124784674444 -8.589185792542008 5.798789025327283
head 1.31670626530906 -3.9367715389656928 1.523096323802899
rclavicle -7.808862147039486E-16 9.435901958428588E-16
rhumerus 36.45983505837196 -4.377818740420064 -29.151126968753992
rradius 150.3305300180591
rwrist -24.46792760828631
rhand -19.42664582864181 -31.14005268948215
rfingers 7.125019999999956
rthumb 6.915855039766082 -60.95599695530794
lclavicle -1.6771887131639497E-15 1.1040506374567858E-15
lhumerus -47.36483595322605 -6.208810052645573 79.82622016455582
lradius 62.015919820251426
lwrist 10.826000647062566
lhand -14.546203210395205 -19.889328027905677
lfingers 7.125019999999867
lthumb 11.53805670950943 9.831774877587637
rfemur -0.49933023316608693 8.911209780002629 35.66413142726445
rtibia 26.902339648911003
rfoot -21.509872272193242 -7.948699032919933
rtoes 5.632658622937752
lfemur -26.34144580171726 2.102776903078024 -15.858687535166357
ltibia 50.74483797456967
lfoot -3.1901395991458408 -4.7246865694924205
ltoes 5.115444654874892
43
root 0 0 0 -1.475756375481433 -1.5440608936189435 -3.9854766305723555
lowerback 19.91805049846535 3.018787423179936 0.12816440258891004
upperback 2.2665533906443653 4.077198638579289 -0.5230413965484326
thorax -8.711981824544216 1.962680964287221 -1.296051235085204
lowerneck -8.592989236782943 -5.944018894436999 -1.4409491170267255
upperneck -1.2269429118425244 -8.57012487543765 5.762807570337593
head 1.2957877370842636 -3.9303729768977496 1.5104076049256419
rclavicle -6.572720731641188E-16 1.0794363937355979E-15
rhumerus 36.345354821731675 -4.538874234573721 -29.36019477719205
rradius 150.19877220489076
rwrist -24.060964049303838
rhand -19.547909599883724 -31.043144969262293
rfingers 7.1250199999999575
rthumb 6.8002407495300945 -60.8655670633793
lclavicle -1.5645717068521667E-15 1.1910053430454285E-15
lhumerus -47.37565115073966 -6.164686515271353 79.75099399100948
lradius 61.991463642997644
lwrist 10.84536641817996
lhand -14.586188682223908 -19.821088663448087
lfingers 7.125019999999866
lthumb 11.498803681276067 9.914978339563833
rfemur -0.8435707857300119 8.791157801481532 35.498224619550236
rtibia 27.648450163378328
rfoot -21.147620455781475 -7.991468155426266
rtoes 5.167289135906218
lfemur -26.801843736228374 1.5121984327990385 -16.771482541791485
ltibia 46.249895572021764
lfoot -3.1599317731787373 -4.248514683614482
ltoes 8.615730270885074
44
root 0 0 0 -1.4739949012921312 -1.5561996596040646 -3.9730891128214125
lowerback 20.05188456281269 2.998208606482269 0.08729065332950425
upperback 2.280079249505208 4.047582067875145 -0.5050691095166653
thorax -8.772383027021403 1.948632301946799 -1.252611281666983
lowerneck -8.55044426560993 -5.935541239837805 -1.3930491836027865
upperneck -1.2166612528361167 -8.548867797998497 5.683937381448542
head 1.3049010438208404 -3.923572983992864 1.4786168689433397
rclavicle -4.272880440015914E-16 1.1750340891876894E-15
rhumerus 35.961571137043826 -5.263749459498594 -29.814289246895733
rradius 149.38741708583402
rwrist -23.09514507007149
rhand -19.741241745425093 -30.899522980030415
rfingers 7.125019999999961
rthumb 6.616040096957372 -60.73146520961667
lclavicle -1.371341436996778E-15 1.2344344819169135E-15
lhumerus -47.36335699969804 -6.122999628419378 79.66479692363414
lradius 61.96332883286708
lwrist 10.886543609452648
lhand -14.647535132582655 -19.7104596218277
lfingers 7.125019999999863
lthumb 11.436911195151696 10.04821230263205
rfemur -3.17594960732377 8.484438699431157 35.014730450646084
rtibia 29.99601644305337
rfoot -19.712675500043797 -8.137940797838034
rtoes 4.6552529991485745
lfemur -25.751786995597126 0.7356052900873773 -17.844295449110113
ltibia 41.90059955135381
lfoot -2.3472083531250654 -4.458553660953034
ltoes 11.450740687876461
45
root 0 0 0 -1.461432574069973 -1.5253900806319303 -3.966544280527604
lowerback 20.127952959150477 2.977348108984015 0.0377422005949446
upperback 2.2772730400057144 4.017358577755968 -0.48043245629982323
thorax -8.815819745588353 1.9352602208678005 -1.1962705899812307
lowerneck -8.498141288987497 -5.938581273262092 -1.3581214157506505
upperneck -1.0639228326125316 -8.549497884240049 5.631263844548311
head 1.3578578473383738 -3.924288081171336 1.454771716799208
rclavicle -1.6513695543824025E-16 1.065044518088126E-15
rhumerus 35.58529427965095 -5.9574920219180125 -30.204092724417315
rradius 148.42470591364085
rwrist -22.25313558402368
rhand -19.832419570046937 -30.776623039979057
rfingers 7.125019999999964
rthumb 6.529203474616573 -60.61246323275178
lclavicle -1.1382472908506952E-15 1.1257495399929623E-15
lhumerus -47.34874743709082 -6.096089053891992 79.61698475042361
lradius 61.94232016765114
lwrist 10.908111842724882
lhand -14.685565754375206 -19.648176046196326
lfingers 7.125019999999862
lthumb 11.398202599782815 10.126987392825468
rfemur -6.337596508358002 8.193135580830996 34.52894389207516
rtibia 32.61523693410761
rfoot -17.98137405751755 -8.319277610448452
rtoes 4.719971410248748
lfemur -24.002830552965964 0.3919314476510576 -18.498157535645998
ltibia 40.88648850237683
lfoot -1.2937424281598169 -5.326682117881679
ltoes 12.10523147673149
